<mxfile host="app.diagrams.net" modified="2023-10-02T21:01:49.947Z" agent="Mozilla/5.0 (Windows NT 10.0; Win64; x64) AppleWebKit/537.36 (KHTML, like Gecko) Chrome/117.0.0.0 Safari/537.36" etag="Wfo13MEmCHIea6Dx5RkD" version="21.8.2" type="github" pages="2">
  <diagram id="hgxomhNSU5TegeMPmk7S" name="Page-2">
    <mxGraphModel dx="1434" dy="750" grid="1" gridSize="10" guides="1" tooltips="1" connect="1" arrows="1" fold="1" page="1" pageScale="1" pageWidth="850" pageHeight="1100" math="0" shadow="0">
      <root>
        <mxCell id="0" />
        <mxCell id="1" parent="0" />
        <mxCell id="FdXKftUULpr2eJZdZ1Ii-6" value="" style="rounded=0;whiteSpace=wrap;html=1;dashed=1;dashPattern=12 12;fillColor=#fad7ac;strokeColor=#b46504;" parent="1" vertex="1">
          <mxGeometry x="40" y="200" width="160" height="279" as="geometry" />
        </mxCell>
        <mxCell id="FdXKftUULpr2eJZdZ1Ii-7" value="&amp;nbsp;Host Project: ulta-network-nonprod" style="rounded=0;whiteSpace=wrap;html=1;verticalAlign=top;align=right;dashed=1;dashPattern=12 12;fillColor=#dae8fc;strokeColor=#6c8ebf;" parent="1" vertex="1">
          <mxGeometry x="320" y="40" width="390" height="370" as="geometry" />
        </mxCell>
        <mxCell id="FdXKftUULpr2eJZdZ1Ii-10" value="&amp;nbsp;Shared VPC: ulta-network-nonprod" style="rounded=0;whiteSpace=wrap;html=1;verticalAlign=top;align=right;fillColor=#F4F7FC;strokeColor=#6c8ebf;" parent="1" vertex="1">
          <mxGeometry x="490" y="70" width="200" height="140" as="geometry" />
        </mxCell>
        <mxCell id="FdXKftUULpr2eJZdZ1Ii-13" value="&amp;nbsp;Shared VPC: &lt;br&gt;ulta-network-nonprod-mgmt" style="rounded=0;whiteSpace=wrap;html=1;verticalAlign=top;align=right;fillColor=#F4F7FC;strokeColor=#6c8ebf;" parent="1" vertex="1">
          <mxGeometry x="490" y="240" width="200" height="140" as="geometry" />
        </mxCell>
        <mxCell id="FdXKftUULpr2eJZdZ1Ii-16" value="Service Project" style="rounded=1;whiteSpace=wrap;html=1;dashed=1;dashPattern=12 12;" parent="1" vertex="1">
          <mxGeometry x="510" y="140" width="120" height="40" as="geometry" />
        </mxCell>
        <mxCell id="FdXKftUULpr2eJZdZ1Ii-27" value="Service Project" style="rounded=1;whiteSpace=wrap;html=1;dashed=1;dashPattern=12 12;" parent="1" vertex="1">
          <mxGeometry x="510" y="310" width="120" height="40" as="geometry" />
        </mxCell>
        <mxCell id="FdXKftUULpr2eJZdZ1Ii-32" value="Ulta Beauty CyrusOne" style="text;html=1;align=center;verticalAlign=middle;resizable=0;points=[];autosize=1;strokeColor=none;fillColor=none;" parent="1" vertex="1">
          <mxGeometry x="50" y="200" width="140" height="30" as="geometry" />
        </mxCell>
        <mxCell id="aW4QzEi05KcBdIsKtqk4-1" value="&amp;nbsp;Host Project: ulta-network-prod" style="rounded=0;whiteSpace=wrap;html=1;verticalAlign=top;align=right;dashed=1;dashPattern=12 12;fillColor=#dae8fc;strokeColor=#6c8ebf;" parent="1" vertex="1">
          <mxGeometry x="320" y="430" width="390" height="380" as="geometry" />
        </mxCell>
        <mxCell id="aW4QzEi05KcBdIsKtqk4-2" value="&amp;nbsp;Shared VPC: ulta-network-prod" style="rounded=0;whiteSpace=wrap;html=1;verticalAlign=top;align=right;fillColor=#F4F7FC;strokeColor=#6c8ebf;" parent="1" vertex="1">
          <mxGeometry x="490" y="470" width="200" height="140" as="geometry" />
        </mxCell>
        <mxCell id="aW4QzEi05KcBdIsKtqk4-3" value="&amp;nbsp;Shared VPC: &lt;br&gt;ulta-network-prod-mgmt" style="rounded=0;whiteSpace=wrap;html=1;verticalAlign=top;align=right;fillColor=#F4F7FC;strokeColor=#6c8ebf;" parent="1" vertex="1">
          <mxGeometry x="490" y="640" width="200" height="140" as="geometry" />
        </mxCell>
        <mxCell id="aW4QzEi05KcBdIsKtqk4-4" value="Service Project" style="rounded=1;whiteSpace=wrap;html=1;dashed=1;dashPattern=12 12;" parent="1" vertex="1">
          <mxGeometry x="510" y="540" width="120" height="40" as="geometry" />
        </mxCell>
        <mxCell id="aW4QzEi05KcBdIsKtqk4-5" value="Service Project" style="rounded=1;whiteSpace=wrap;html=1;dashed=1;dashPattern=12 12;" parent="1" vertex="1">
          <mxGeometry x="510" y="710" width="120" height="40" as="geometry" />
        </mxCell>
        <mxCell id="PcTRODv-vjbn7Whf8CsP-24" style="edgeStyle=orthogonalEdgeStyle;rounded=0;orthogonalLoop=1;jettySize=auto;html=1;exitX=0;exitY=0.5;exitDx=0;exitDy=0;entryX=0;entryY=0.5;entryDx=0;entryDy=0;strokeColor=#FF00FF;strokeWidth=2;" parent="1" source="aW4QzEi05KcBdIsKtqk4-6" target="aW4QzEi05KcBdIsKtqk4-17" edge="1">
          <mxGeometry relative="1" as="geometry">
            <Array as="points">
              <mxPoint x="300" y="495" />
              <mxPoint x="300" y="374" />
            </Array>
          </mxGeometry>
        </mxCell>
        <mxCell id="aW4QzEi05KcBdIsKtqk4-6" value="nonprod.ultagcp.lcl" style="rounded=0;whiteSpace=wrap;html=1;" parent="1" vertex="1">
          <mxGeometry x="330" y="470" width="110" height="50" as="geometry" />
        </mxCell>
        <mxCell id="aW4QzEi05KcBdIsKtqk4-15" style="edgeStyle=orthogonalEdgeStyle;rounded=0;orthogonalLoop=1;jettySize=auto;html=1;exitX=0;exitY=0.5;exitDx=0;exitDy=0;entryX=1;entryY=0.5;entryDx=0;entryDy=0;strokeColor=#009900;strokeWidth=2;" parent="1" source="aW4QzEi05KcBdIsKtqk4-10" target="aW4QzEi05KcBdIsKtqk4-11" edge="1">
          <mxGeometry relative="1" as="geometry" />
        </mxCell>
        <mxCell id="aW4QzEi05KcBdIsKtqk4-10" value="glulta.local" style="rounded=0;whiteSpace=wrap;html=1;" parent="1" vertex="1">
          <mxGeometry x="330" y="740" width="110" height="50" as="geometry" />
        </mxCell>
        <mxCell id="aW4QzEi05KcBdIsKtqk4-11" value="" style="rounded=0;whiteSpace=wrap;html=1;dashed=1;dashPattern=12 12;fillColor=#fad7ac;strokeColor=#b46504;" parent="1" vertex="1">
          <mxGeometry x="40" y="705" width="160" height="120" as="geometry" />
        </mxCell>
        <mxCell id="aW4QzEi05KcBdIsKtqk4-14" value="Ulta Beauty ?" style="text;html=1;align=center;verticalAlign=middle;resizable=0;points=[];autosize=1;strokeColor=none;fillColor=none;" parent="1" vertex="1">
          <mxGeometry x="70" y="705" width="100" height="30" as="geometry" />
        </mxCell>
        <mxCell id="aW4QzEi05KcBdIsKtqk4-17" value="nonprod.ultagcp.lcl" style="rounded=0;whiteSpace=wrap;html=1;fillColor=#fad9d5;strokeColor=#ae4132;" parent="1" vertex="1">
          <mxGeometry x="330" y="349" width="110" height="50" as="geometry" />
        </mxCell>
        <mxCell id="PcTRODv-vjbn7Whf8CsP-13" style="edgeStyle=orthogonalEdgeStyle;rounded=0;orthogonalLoop=1;jettySize=auto;html=1;exitX=0;exitY=0.5;exitDx=0;exitDy=0;entryX=0.5;entryY=1;entryDx=0;entryDy=0;strokeWidth=2;strokeColor=#009900;" parent="1" source="PcTRODv-vjbn7Whf8CsP-1" target="PcTRODv-vjbn7Whf8CsP-18" edge="1">
          <mxGeometry relative="1" as="geometry" />
        </mxCell>
        <mxCell id="PcTRODv-vjbn7Whf8CsP-1" value="ultainc.lcl" style="rounded=0;whiteSpace=wrap;html=1;" parent="1" vertex="1">
          <mxGeometry x="330" y="670" width="110" height="50" as="geometry" />
        </mxCell>
        <mxCell id="PcTRODv-vjbn7Whf8CsP-5" value="prod.ultagcp.lcl" style="rounded=0;whiteSpace=wrap;html=1;fillColor=#fad9d5;strokeColor=#ae4132;" parent="1" vertex="1">
          <mxGeometry x="330" y="535" width="110" height="50" as="geometry" />
        </mxCell>
        <mxCell id="PcTRODv-vjbn7Whf8CsP-12" value="ulta.lcl" style="rounded=0;whiteSpace=wrap;html=1;fillColor=#fad9d5;strokeColor=#ae4132;" parent="1" vertex="1">
          <mxGeometry x="330" y="600" width="110" height="50" as="geometry" />
        </mxCell>
        <mxCell id="PcTRODv-vjbn7Whf8CsP-16" value="" style="rounded=0;whiteSpace=wrap;html=1;fillColor=#fad9d5;strokeColor=#ae4132;" parent="1" vertex="1">
          <mxGeometry x="50" y="867.5" width="35" height="15" as="geometry" />
        </mxCell>
        <mxCell id="PcTRODv-vjbn7Whf8CsP-17" value="Authoritative" style="text;html=1;align=center;verticalAlign=middle;resizable=0;points=[];autosize=1;strokeColor=none;fillColor=none;" parent="1" vertex="1">
          <mxGeometry x="85" y="860" width="90" height="30" as="geometry" />
        </mxCell>
        <mxCell id="PcTRODv-vjbn7Whf8CsP-18" value="ultainc.lcl" style="rounded=0;whiteSpace=wrap;html=1;fillColor=#fad9d5;strokeColor=#ae4132;" parent="1" vertex="1">
          <mxGeometry x="60" y="420" width="110" height="50" as="geometry" />
        </mxCell>
        <mxCell id="PcTRODv-vjbn7Whf8CsP-19" value="glulta.local" style="rounded=0;whiteSpace=wrap;html=1;fillColor=#fad9d5;strokeColor=#ae4132;" parent="1" vertex="1">
          <mxGeometry x="65" y="740" width="110" height="50" as="geometry" />
        </mxCell>
        <mxCell id="PcTRODv-vjbn7Whf8CsP-20" value="" style="endArrow=classic;html=1;rounded=0;strokeWidth=2;strokeColor=#009900;" parent="1" edge="1">
          <mxGeometry width="50" height="50" relative="1" as="geometry">
            <mxPoint x="385" y="875" as="sourcePoint" />
            <mxPoint x="425" y="875" as="targetPoint" />
          </mxGeometry>
        </mxCell>
        <mxCell id="PcTRODv-vjbn7Whf8CsP-21" value="Forwarding" style="text;html=1;align=center;verticalAlign=middle;resizable=0;points=[];autosize=1;strokeColor=none;fillColor=none;" parent="1" vertex="1">
          <mxGeometry x="430" y="855" width="80" height="30" as="geometry" />
        </mxCell>
        <mxCell id="PcTRODv-vjbn7Whf8CsP-22" value="" style="endArrow=classic;html=1;rounded=0;strokeWidth=2;strokeColor=#FF00FF;" parent="1" edge="1">
          <mxGeometry width="50" height="50" relative="1" as="geometry">
            <mxPoint x="560" y="875" as="sourcePoint" />
            <mxPoint x="600" y="875" as="targetPoint" />
          </mxGeometry>
        </mxCell>
        <mxCell id="PcTRODv-vjbn7Whf8CsP-23" value="Peered" style="text;html=1;align=center;verticalAlign=middle;resizable=0;points=[];autosize=1;strokeColor=none;fillColor=none;" parent="1" vertex="1">
          <mxGeometry x="615" y="855" width="60" height="30" as="geometry" />
        </mxCell>
        <mxCell id="PcTRODv-vjbn7Whf8CsP-30" style="edgeStyle=orthogonalEdgeStyle;rounded=0;orthogonalLoop=1;jettySize=auto;html=1;exitX=0;exitY=0.5;exitDx=0;exitDy=0;entryX=0;entryY=0.25;entryDx=0;entryDy=0;strokeColor=#FF00FF;strokeWidth=2;" parent="1" source="PcTRODv-vjbn7Whf8CsP-25" target="aW4QzEi05KcBdIsKtqk4-10" edge="1">
          <mxGeometry relative="1" as="geometry">
            <Array as="points">
              <mxPoint x="280" y="305" />
              <mxPoint x="280" y="753" />
            </Array>
          </mxGeometry>
        </mxCell>
        <mxCell id="PcTRODv-vjbn7Whf8CsP-25" value="glulta.local" style="rounded=0;whiteSpace=wrap;html=1;" parent="1" vertex="1">
          <mxGeometry x="330" y="280" width="110" height="50" as="geometry" />
        </mxCell>
        <mxCell id="PcTRODv-vjbn7Whf8CsP-29" style="edgeStyle=orthogonalEdgeStyle;rounded=0;orthogonalLoop=1;jettySize=auto;html=1;exitX=0;exitY=0.5;exitDx=0;exitDy=0;entryX=0;entryY=0.25;entryDx=0;entryDy=0;strokeColor=#FF00FF;strokeWidth=2;" parent="1" source="PcTRODv-vjbn7Whf8CsP-26" target="PcTRODv-vjbn7Whf8CsP-1" edge="1">
          <mxGeometry relative="1" as="geometry">
            <Array as="points">
              <mxPoint x="280" y="235" />
              <mxPoint x="280" y="683" />
            </Array>
          </mxGeometry>
        </mxCell>
        <mxCell id="PcTRODv-vjbn7Whf8CsP-26" value="ultainc.lcl" style="rounded=0;whiteSpace=wrap;html=1;" parent="1" vertex="1">
          <mxGeometry x="330" y="210" width="110" height="50" as="geometry" />
        </mxCell>
        <mxCell id="PcTRODv-vjbn7Whf8CsP-28" style="edgeStyle=orthogonalEdgeStyle;rounded=0;orthogonalLoop=1;jettySize=auto;html=1;exitX=0;exitY=0.5;exitDx=0;exitDy=0;strokeColor=#FF00FF;strokeWidth=2;" parent="1" edge="1">
          <mxGeometry relative="1" as="geometry">
            <mxPoint x="350" y="170" as="sourcePoint" />
            <mxPoint x="330" y="630" as="targetPoint" />
            <Array as="points">
              <mxPoint x="280" y="170" />
              <mxPoint x="280" y="630" />
            </Array>
          </mxGeometry>
        </mxCell>
        <mxCell id="PcTRODv-vjbn7Whf8CsP-27" value="ulta.lcl" style="rounded=0;whiteSpace=wrap;html=1;" parent="1" vertex="1">
          <mxGeometry x="330" y="140" width="110" height="50" as="geometry" />
        </mxCell>
        <mxCell id="PcTRODv-vjbn7Whf8CsP-36" style="edgeStyle=orthogonalEdgeStyle;rounded=0;orthogonalLoop=1;jettySize=auto;html=1;exitX=1;exitY=0.5;exitDx=0;exitDy=0;entryX=0;entryY=0.25;entryDx=0;entryDy=0;strokeColor=#009900;strokeWidth=2;" parent="1" source="PcTRODv-vjbn7Whf8CsP-31" target="aW4QzEi05KcBdIsKtqk4-17" edge="1">
          <mxGeometry relative="1" as="geometry">
            <Array as="points">
              <mxPoint x="260" y="265" />
              <mxPoint x="260" y="362" />
            </Array>
          </mxGeometry>
        </mxCell>
        <mxCell id="PcTRODv-vjbn7Whf8CsP-31" value="nonprod.ultagcp.lcl" style="rounded=0;whiteSpace=wrap;html=1;" parent="1" vertex="1">
          <mxGeometry x="60" y="240" width="110" height="50" as="geometry" />
        </mxCell>
        <mxCell id="PcTRODv-vjbn7Whf8CsP-35" style="edgeStyle=orthogonalEdgeStyle;rounded=0;orthogonalLoop=1;jettySize=auto;html=1;exitX=1;exitY=0.5;exitDx=0;exitDy=0;entryX=0;entryY=0.5;entryDx=0;entryDy=0;strokeColor=#009900;strokeWidth=2;" parent="1" source="PcTRODv-vjbn7Whf8CsP-32" target="PcTRODv-vjbn7Whf8CsP-5" edge="1">
          <mxGeometry relative="1" as="geometry" />
        </mxCell>
        <mxCell id="PcTRODv-vjbn7Whf8CsP-32" value="prod.ultagcp.lcl" style="rounded=0;whiteSpace=wrap;html=1;" parent="1" vertex="1">
          <mxGeometry x="60" y="300" width="110" height="50" as="geometry" />
        </mxCell>
        <mxCell id="PcTRODv-vjbn7Whf8CsP-34" style="edgeStyle=orthogonalEdgeStyle;rounded=0;orthogonalLoop=1;jettySize=auto;html=1;exitX=1;exitY=0.5;exitDx=0;exitDy=0;entryX=0;entryY=0.25;entryDx=0;entryDy=0;strokeColor=#009900;strokeWidth=2;" parent="1" source="PcTRODv-vjbn7Whf8CsP-33" target="PcTRODv-vjbn7Whf8CsP-12" edge="1">
          <mxGeometry relative="1" as="geometry" />
        </mxCell>
        <mxCell id="PcTRODv-vjbn7Whf8CsP-33" value="ulta.lcl" style="rounded=0;whiteSpace=wrap;html=1;" parent="1" vertex="1">
          <mxGeometry x="60" y="360" width="110" height="50" as="geometry" />
        </mxCell>
        <mxCell id="xZxYlGcj3bj4lMLJkDqK-1" value="&lt;b&gt;Google Cloud Platform&lt;br&gt;Cloud DNS&lt;/b&gt;" style="text;html=1;align=center;verticalAlign=middle;resizable=0;points=[];autosize=1;strokeColor=none;fillColor=none;" parent="1" vertex="1">
          <mxGeometry x="315" y="40" width="150" height="40" as="geometry" />
        </mxCell>
        <mxCell id="xZxYlGcj3bj4lMLJkDqK-2" value="&lt;b&gt;Google Cloud Platform&lt;br&gt;Cloud DNS&lt;/b&gt;" style="text;html=1;align=center;verticalAlign=middle;resizable=0;points=[];autosize=1;strokeColor=none;fillColor=none;" parent="1" vertex="1">
          <mxGeometry x="320" y="430" width="150" height="40" as="geometry" />
        </mxCell>
        <mxCell id="xZxYlGcj3bj4lMLJkDqK-3" value="" style="triangle;whiteSpace=wrap;html=1;rotation=0;fillColor=#FF0000;" parent="1" vertex="1">
          <mxGeometry x="440" y="364" width="20" height="20" as="geometry" />
        </mxCell>
        <mxCell id="xZxYlGcj3bj4lMLJkDqK-5" value="" style="triangle;whiteSpace=wrap;html=1;rotation=0;fillColor=#FF0000;" parent="1" vertex="1">
          <mxGeometry x="440" y="550" width="20" height="20" as="geometry" />
        </mxCell>
        <mxCell id="xZxYlGcj3bj4lMLJkDqK-6" value="" style="triangle;whiteSpace=wrap;html=1;rotation=0;fillColor=#FF0000;" parent="1" vertex="1">
          <mxGeometry x="440" y="615" width="20" height="20" as="geometry" />
        </mxCell>
        <mxCell id="xZxYlGcj3bj4lMLJkDqK-7" value="" style="triangle;whiteSpace=wrap;html=1;rotation=0;fillColor=#FF0000;" parent="1" vertex="1">
          <mxGeometry x="230" y="867" width="20" height="20" as="geometry" />
        </mxCell>
        <mxCell id="xZxYlGcj3bj4lMLJkDqK-8" value="No Associated &lt;br&gt;Reverse Zone" style="text;html=1;align=center;verticalAlign=middle;resizable=0;points=[];autosize=1;strokeColor=none;fillColor=none;" parent="1" vertex="1">
          <mxGeometry x="250" y="860" width="100" height="40" as="geometry" />
        </mxCell>
      </root>
    </mxGraphModel>
  </diagram>
  <diagram name="Domain Hierarchy" id="_B_-zeAUZdGrHvG1jHlI">
    <mxGraphModel dx="2284" dy="750" grid="1" gridSize="10" guides="1" tooltips="1" connect="1" arrows="1" fold="1" page="1" pageScale="1" pageWidth="850" pageHeight="1100" math="0" shadow="0">
      <root>
        <mxCell id="0" />
        <mxCell id="1" parent="0" />
        <mxCell id="1P-jeOJkd8ypp9ooArNP-1" value="ultainc.lcl" style="rounded=0;whiteSpace=wrap;html=1;" parent="1" vertex="1">
          <mxGeometry x="80" y="120" width="120" height="40" as="geometry" />
        </mxCell>
        <mxCell id="1P-jeOJkd8ypp9ooArNP-8" style="edgeStyle=orthogonalEdgeStyle;rounded=0;orthogonalLoop=1;jettySize=auto;html=1;exitX=0.5;exitY=1;exitDx=0;exitDy=0;entryX=0.5;entryY=0;entryDx=0;entryDy=0;" parent="1" source="1P-jeOJkd8ypp9ooArNP-2" target="1P-jeOJkd8ypp9ooArNP-1" edge="1">
          <mxGeometry relative="1" as="geometry" />
        </mxCell>
        <mxCell id="1P-jeOJkd8ypp9ooArNP-9" style="edgeStyle=orthogonalEdgeStyle;rounded=0;orthogonalLoop=1;jettySize=auto;html=1;exitX=0.5;exitY=1;exitDx=0;exitDy=0;" parent="1" source="1P-jeOJkd8ypp9ooArNP-2" target="1P-jeOJkd8ypp9ooArNP-4" edge="1">
          <mxGeometry relative="1" as="geometry" />
        </mxCell>
        <mxCell id="1P-jeOJkd8ypp9ooArNP-10" style="edgeStyle=orthogonalEdgeStyle;rounded=0;orthogonalLoop=1;jettySize=auto;html=1;exitX=0.5;exitY=1;exitDx=0;exitDy=0;" parent="1" source="1P-jeOJkd8ypp9ooArNP-2" target="1P-jeOJkd8ypp9ooArNP-6" edge="1">
          <mxGeometry relative="1" as="geometry" />
        </mxCell>
        <mxCell id="1P-jeOJkd8ypp9ooArNP-11" style="edgeStyle=orthogonalEdgeStyle;rounded=0;orthogonalLoop=1;jettySize=auto;html=1;exitX=0.5;exitY=1;exitDx=0;exitDy=0;entryX=0.5;entryY=0;entryDx=0;entryDy=0;" parent="1" source="1P-jeOJkd8ypp9ooArNP-2" target="1P-jeOJkd8ypp9ooArNP-3" edge="1">
          <mxGeometry relative="1" as="geometry" />
        </mxCell>
        <mxCell id="1P-jeOJkd8ypp9ooArNP-12" style="edgeStyle=orthogonalEdgeStyle;rounded=0;orthogonalLoop=1;jettySize=auto;html=1;exitX=0.5;exitY=1;exitDx=0;exitDy=0;" parent="1" source="1P-jeOJkd8ypp9ooArNP-2" target="1P-jeOJkd8ypp9ooArNP-5" edge="1">
          <mxGeometry relative="1" as="geometry">
            <Array as="points">
              <mxPoint x="460" y="170" />
              <mxPoint x="620" y="170" />
            </Array>
          </mxGeometry>
        </mxCell>
        <mxCell id="1P-jeOJkd8ypp9ooArNP-2" value=".lcl" style="rounded=0;whiteSpace=wrap;html=1;" parent="1" vertex="1">
          <mxGeometry x="400" y="40" width="120" height="40" as="geometry" />
        </mxCell>
        <mxCell id="1P-jeOJkd8ypp9ooArNP-16" style="edgeStyle=orthogonalEdgeStyle;rounded=0;orthogonalLoop=1;jettySize=auto;html=1;exitX=0.5;exitY=1;exitDx=0;exitDy=0;entryX=0.5;entryY=0;entryDx=0;entryDy=0;" parent="1" source="1P-jeOJkd8ypp9ooArNP-3" target="1P-jeOJkd8ypp9ooArNP-14" edge="1">
          <mxGeometry relative="1" as="geometry" />
        </mxCell>
        <mxCell id="1P-jeOJkd8ypp9ooArNP-17" style="edgeStyle=orthogonalEdgeStyle;rounded=0;orthogonalLoop=1;jettySize=auto;html=1;exitX=0.5;exitY=1;exitDx=0;exitDy=0;" parent="1" source="1P-jeOJkd8ypp9ooArNP-3" target="1P-jeOJkd8ypp9ooArNP-15" edge="1">
          <mxGeometry relative="1" as="geometry" />
        </mxCell>
        <mxCell id="1P-jeOJkd8ypp9ooArNP-3" value="prod.ultagcp.lcl" style="rounded=0;whiteSpace=wrap;html=1;" parent="1" vertex="1">
          <mxGeometry x="400" y="200" width="120" height="40" as="geometry" />
        </mxCell>
        <mxCell id="1P-jeOJkd8ypp9ooArNP-4" value="ulta.lcl" style="rounded=0;whiteSpace=wrap;html=1;" parent="1" vertex="1">
          <mxGeometry x="240" y="120" width="120" height="40" as="geometry" />
        </mxCell>
        <mxCell id="1P-jeOJkd8ypp9ooArNP-5" value="nonprod.ultagcp.lcl" style="rounded=0;whiteSpace=wrap;html=1;" parent="1" vertex="1">
          <mxGeometry x="560" y="200" width="120" height="40" as="geometry" />
        </mxCell>
        <mxCell id="1P-jeOJkd8ypp9ooArNP-6" value="glulta.local" style="rounded=0;whiteSpace=wrap;html=1;" parent="1" vertex="1">
          <mxGeometry x="720" y="120" width="120" height="40" as="geometry" />
        </mxCell>
        <mxCell id="1P-jeOJkd8ypp9ooArNP-7" value="ultagcp.lcl" style="rounded=0;whiteSpace=wrap;html=1;fillColor=#BABDBF;strokeColor=#314354;fontColor=#000000;" parent="1" vertex="1">
          <mxGeometry x="480" y="120" width="120" height="40" as="geometry" />
        </mxCell>
        <mxCell id="1P-jeOJkd8ypp9ooArNP-14" value="&lt;font style=&quot;font-size: 10px;&quot;&gt;projectA.prod.ultagcp.lcl&lt;/font&gt;" style="rounded=0;whiteSpace=wrap;html=1;dashed=1;dashPattern=8 8;strokeColor=#314354;strokeWidth=2;fillColor=#BABDBF;fontColor=#000000;" parent="1" vertex="1">
          <mxGeometry x="320" y="280" width="120" height="40" as="geometry" />
        </mxCell>
        <mxCell id="1P-jeOJkd8ypp9ooArNP-15" value="&lt;font style=&quot;font-size: 10px;&quot;&gt;projectB.prod.ultagcp.lcl&lt;/font&gt;" style="rounded=0;whiteSpace=wrap;html=1;dashed=1;dashPattern=8 8;strokeColor=#314354;strokeWidth=2;fillColor=#BABDBF;fontColor=#000000;" parent="1" vertex="1">
          <mxGeometry x="480" y="280" width="120" height="40" as="geometry" />
        </mxCell>
        <mxCell id="1P-jeOJkd8ypp9ooArNP-18" value="" style="strokeWidth=2;html=1;shape=mxgraph.flowchart.annotation_2;align=left;labelPosition=right;pointerEvents=1;" parent="1" vertex="1">
          <mxGeometry x="260" y="280" width="30" height="40" as="geometry" />
        </mxCell>
        <mxCell id="1P-jeOJkd8ypp9ooArNP-19" value="Project Private Zones&lt;br&gt;&#39;Cross Account Bindings&#39;" style="text;html=1;align=center;verticalAlign=middle;resizable=0;points=[];autosize=1;strokeColor=none;fillColor=none;" parent="1" vertex="1">
          <mxGeometry x="110" y="283" width="150" height="40" as="geometry" />
        </mxCell>
        <mxCell id="1P-jeOJkd8ypp9ooArNP-20" value="" style="strokeWidth=2;html=1;shape=mxgraph.flowchart.annotation_2;align=left;labelPosition=right;pointerEvents=1;" parent="1" vertex="1">
          <mxGeometry x="340" y="200" width="30" height="40" as="geometry" />
        </mxCell>
        <mxCell id="1P-jeOJkd8ypp9ooArNP-21" value="Environment Specific Zones" style="text;html=1;align=center;verticalAlign=middle;resizable=0;points=[];autosize=1;strokeColor=none;fillColor=none;" parent="1" vertex="1">
          <mxGeometry x="170" y="205" width="170" height="30" as="geometry" />
        </mxCell>
        <mxCell id="1P-jeOJkd8ypp9ooArNP-22" value="" style="strokeWidth=2;html=1;shape=mxgraph.flowchart.annotation_2;align=left;labelPosition=right;pointerEvents=1;rotation=0;" parent="1" vertex="1">
          <mxGeometry x="40" y="120" width="30" height="40" as="geometry" />
        </mxCell>
        <mxCell id="1P-jeOJkd8ypp9ooArNP-24" value="Cloud Zones" style="text;html=1;align=center;verticalAlign=middle;resizable=0;points=[];autosize=1;strokeColor=none;fillColor=none;" parent="1" vertex="1">
          <mxGeometry x="-50" y="125" width="90" height="30" as="geometry" />
        </mxCell>
        <mxCell id="1P-jeOJkd8ypp9ooArNP-31" value="Does not exist" style="text;html=1;align=center;verticalAlign=middle;resizable=0;points=[];autosize=1;strokeColor=none;fillColor=none;" parent="1" vertex="1">
          <mxGeometry x="740" y="340" width="100" height="30" as="geometry" />
        </mxCell>
        <mxCell id="1P-jeOJkd8ypp9ooArNP-35" value="" style="rounded=0;whiteSpace=wrap;html=1;fillColor=#BABDBF;strokeColor=#314354;fontColor=#ffffff;" parent="1" vertex="1">
          <mxGeometry x="710" y="350" width="30" height="10" as="geometry" />
        </mxCell>
        <mxCell id="jhozdEIDielITQ5Zo_nS-5" style="edgeStyle=orthogonalEdgeStyle;rounded=0;orthogonalLoop=1;jettySize=auto;html=1;exitX=0.5;exitY=1;exitDx=0;exitDy=0;entryX=0.5;entryY=0;entryDx=0;entryDy=0;" parent="1" source="jhozdEIDielITQ5Zo_nS-1" target="jhozdEIDielITQ5Zo_nS-3" edge="1">
          <mxGeometry relative="1" as="geometry" />
        </mxCell>
        <mxCell id="jhozdEIDielITQ5Zo_nS-1" value=".com" style="rounded=0;whiteSpace=wrap;html=1;" parent="1" vertex="1">
          <mxGeometry x="1000" y="40" width="120" height="40" as="geometry" />
        </mxCell>
        <mxCell id="jhozdEIDielITQ5Zo_nS-6" style="edgeStyle=orthogonalEdgeStyle;rounded=0;orthogonalLoop=1;jettySize=auto;html=1;exitX=0.5;exitY=1;exitDx=0;exitDy=0;" parent="1" source="jhozdEIDielITQ5Zo_nS-2" target="jhozdEIDielITQ5Zo_nS-4" edge="1">
          <mxGeometry relative="1" as="geometry" />
        </mxCell>
        <mxCell id="jhozdEIDielITQ5Zo_nS-2" value=".dev" style="rounded=0;whiteSpace=wrap;html=1;" parent="1" vertex="1">
          <mxGeometry x="1280" y="40" width="120" height="40" as="geometry" />
        </mxCell>
        <mxCell id="jhozdEIDielITQ5Zo_nS-3" value="ulta.com" style="rounded=0;whiteSpace=wrap;html=1;" parent="1" vertex="1">
          <mxGeometry x="1000" y="120" width="120" height="40" as="geometry" />
        </mxCell>
        <mxCell id="jhozdEIDielITQ5Zo_nS-4" value="ulta.dev" style="rounded=0;whiteSpace=wrap;html=1;" parent="1" vertex="1">
          <mxGeometry x="1280" y="120" width="120" height="40" as="geometry" />
        </mxCell>
        <mxCell id="jhozdEIDielITQ5Zo_nS-7" value="" style="strokeWidth=2;html=1;shape=mxgraph.flowchart.annotation_2;align=left;labelPosition=right;pointerEvents=1;rotation=0;" parent="1" vertex="1">
          <mxGeometry x="40" y="40" width="30" height="40" as="geometry" />
        </mxCell>
        <mxCell id="jhozdEIDielITQ5Zo_nS-8" value="Int/Ext Zones" style="text;html=1;align=center;verticalAlign=middle;resizable=0;points=[];autosize=1;strokeColor=none;fillColor=none;" parent="1" vertex="1">
          <mxGeometry x="-50" y="45" width="90" height="30" as="geometry" />
        </mxCell>
        <mxCell id="hHi6ywIfliqPUDehyqya-1" value="ultainc.lcl" style="rounded=0;whiteSpace=wrap;html=1;" vertex="1" parent="1">
          <mxGeometry x="80" y="562" width="120" height="40" as="geometry" />
        </mxCell>
        <mxCell id="hHi6ywIfliqPUDehyqya-2" style="edgeStyle=orthogonalEdgeStyle;rounded=0;orthogonalLoop=1;jettySize=auto;html=1;exitX=0.5;exitY=1;exitDx=0;exitDy=0;entryX=0.5;entryY=0;entryDx=0;entryDy=0;" edge="1" parent="1" source="hHi6ywIfliqPUDehyqya-6" target="hHi6ywIfliqPUDehyqya-1">
          <mxGeometry relative="1" as="geometry" />
        </mxCell>
        <mxCell id="hHi6ywIfliqPUDehyqya-3" style="edgeStyle=orthogonalEdgeStyle;rounded=0;orthogonalLoop=1;jettySize=auto;html=1;exitX=0.5;exitY=1;exitDx=0;exitDy=0;" edge="1" parent="1" source="hHi6ywIfliqPUDehyqya-6" target="hHi6ywIfliqPUDehyqya-8">
          <mxGeometry relative="1" as="geometry" />
        </mxCell>
        <mxCell id="hHi6ywIfliqPUDehyqya-4" style="edgeStyle=orthogonalEdgeStyle;rounded=0;orthogonalLoop=1;jettySize=auto;html=1;exitX=0.5;exitY=1;exitDx=0;exitDy=0;entryX=0.5;entryY=0;entryDx=0;entryDy=0;" edge="1" parent="1" source="hHi6ywIfliqPUDehyqya-6" target="hHi6ywIfliqPUDehyqya-7">
          <mxGeometry relative="1" as="geometry" />
        </mxCell>
        <mxCell id="hHi6ywIfliqPUDehyqya-5" style="edgeStyle=orthogonalEdgeStyle;rounded=0;orthogonalLoop=1;jettySize=auto;html=1;exitX=0.5;exitY=1;exitDx=0;exitDy=0;" edge="1" parent="1" source="hHi6ywIfliqPUDehyqya-6" target="hHi6ywIfliqPUDehyqya-9">
          <mxGeometry relative="1" as="geometry">
            <Array as="points">
              <mxPoint x="460" y="612" />
              <mxPoint x="620" y="612" />
            </Array>
          </mxGeometry>
        </mxCell>
        <mxCell id="hHi6ywIfliqPUDehyqya-6" value=".lcl" style="rounded=0;whiteSpace=wrap;html=1;" vertex="1" parent="1">
          <mxGeometry x="400" y="482" width="120" height="40" as="geometry" />
        </mxCell>
        <mxCell id="hHi6ywIfliqPUDehyqya-7" value="prod.ultagcp.lcl" style="rounded=0;whiteSpace=wrap;html=1;" vertex="1" parent="1">
          <mxGeometry x="400" y="642" width="120" height="40" as="geometry" />
        </mxCell>
        <mxCell id="hHi6ywIfliqPUDehyqya-8" value="ulta.lcl" style="rounded=0;whiteSpace=wrap;html=1;" vertex="1" parent="1">
          <mxGeometry x="240" y="562" width="120" height="40" as="geometry" />
        </mxCell>
        <mxCell id="hHi6ywIfliqPUDehyqya-9" value="nonprod.ultagcp.lcl" style="rounded=0;whiteSpace=wrap;html=1;" vertex="1" parent="1">
          <mxGeometry x="560" y="642" width="120" height="40" as="geometry" />
        </mxCell>
        <mxCell id="hHi6ywIfliqPUDehyqya-10" value="glulta.local" style="rounded=0;whiteSpace=wrap;html=1;" vertex="1" parent="1">
          <mxGeometry x="700" y="482" width="120" height="40" as="geometry" />
        </mxCell>
        <mxCell id="hHi6ywIfliqPUDehyqya-11" value="" style="strokeWidth=2;html=1;shape=mxgraph.flowchart.annotation_2;align=left;labelPosition=right;pointerEvents=1;" vertex="1" parent="1">
          <mxGeometry x="340" y="642" width="30" height="40" as="geometry" />
        </mxCell>
        <mxCell id="hHi6ywIfliqPUDehyqya-12" value="Environment Specific Zones" style="text;html=1;align=center;verticalAlign=middle;resizable=0;points=[];autosize=1;strokeColor=none;fillColor=none;" vertex="1" parent="1">
          <mxGeometry x="170" y="647" width="170" height="30" as="geometry" />
        </mxCell>
        <mxCell id="hHi6ywIfliqPUDehyqya-13" value="" style="strokeWidth=2;html=1;shape=mxgraph.flowchart.annotation_2;align=left;labelPosition=right;pointerEvents=1;rotation=0;" vertex="1" parent="1">
          <mxGeometry x="40" y="562" width="30" height="40" as="geometry" />
        </mxCell>
        <mxCell id="hHi6ywIfliqPUDehyqya-14" value="Cloud Zones" style="text;html=1;align=center;verticalAlign=middle;resizable=0;points=[];autosize=1;strokeColor=none;fillColor=none;" vertex="1" parent="1">
          <mxGeometry x="-50" y="567" width="90" height="30" as="geometry" />
        </mxCell>
        <mxCell id="hHi6ywIfliqPUDehyqya-15" style="edgeStyle=orthogonalEdgeStyle;rounded=0;orthogonalLoop=1;jettySize=auto;html=1;exitX=0.5;exitY=1;exitDx=0;exitDy=0;" edge="1" parent="1" source="hHi6ywIfliqPUDehyqya-16" target="hHi6ywIfliqPUDehyqya-17">
          <mxGeometry relative="1" as="geometry" />
        </mxCell>
        <mxCell id="hHi6ywIfliqPUDehyqya-16" value=".dev" style="rounded=0;whiteSpace=wrap;html=1;" vertex="1" parent="1">
          <mxGeometry x="900" y="482" width="120" height="40" as="geometry" />
        </mxCell>
        <mxCell id="hHi6ywIfliqPUDehyqya-17" value="ulta.dev" style="rounded=0;whiteSpace=wrap;html=1;" vertex="1" parent="1">
          <mxGeometry x="900" y="562" width="120" height="40" as="geometry" />
        </mxCell>
        <mxCell id="hHi6ywIfliqPUDehyqya-18" value="" style="strokeWidth=2;html=1;shape=mxgraph.flowchart.annotation_2;align=left;labelPosition=right;pointerEvents=1;rotation=0;" vertex="1" parent="1">
          <mxGeometry x="40" y="482" width="30" height="40" as="geometry" />
        </mxCell>
        <mxCell id="hHi6ywIfliqPUDehyqya-19" value="Root Internal" style="text;html=1;align=center;verticalAlign=middle;resizable=0;points=[];autosize=1;strokeColor=none;fillColor=none;" vertex="1" parent="1">
          <mxGeometry x="-50" y="487" width="90" height="30" as="geometry" />
        </mxCell>
      </root>
    </mxGraphModel>
  </diagram>
</mxfile>
